<svg width="40" height="40" viewBox="0 0 40 40" fill="none" xmlns="http://www.w3.org/2000/svg">
  <rect width="40" height="40" rx="8" fill="#1E88E5"/>
  <path d="M12 20C12 15.5817 15.5817 12 20 12C24.4183 12 28 15.5817 28 20C28 24.4183 24.4183 28 20 28" stroke="white" stroke-width="3" stroke-linecap="round"/>
  <path d="M20 28C17.7909 28 16 26.2091 16 24C16 21.7909 17.7909 20 20 20C22.2091 20 24 21.7909 24 24C24 26.2091 22.2091 28 20 28Z" fill="white"/>
  <path d="M20 16C21.1046 16 22 15.1046 22 14C22 12.8954 21.1046 12 20 12C18.8954 12 18 12.8954 18 14C18 15.1046 18.8954 16 20 16Z" fill="white"/>
</svg>
